<svg xmlns="http://www.w3.org/2000/svg" viewBox="0 0 800.63 800"><defs><style>.cls-1,.cls-3{fill:#fff;}.cls-2,.cls-6{fill:none;}.cls-2,.cls-3,.cls-4,.cls-5,.cls-6{stroke:#000;}.cls-2,.cls-3{stroke-miterlimit:10;stroke-width:5px;}.cls-4{fill:#c7b299;}.cls-4,.cls-5,.cls-6{stroke-linecap:round;stroke-linejoin:round;}.cls-4,.cls-5{stroke-width:11px;}.cls-5{fill:#a67c52;}.cls-6{stroke-width:4px;}</style></defs><g id="Layer_2" data-name="Layer 2"><g id="Layer_6" data-name="Layer 6"><rect class="cls-1" x="0.63" width="800" height="800"/></g><g id="Layer_5" data-name="Layer 5"><line class="cls-2" x1="799.63" y1="512" x2="0.63" y2="304"/></g><g id="Layer_3" data-name="Layer 3"><polygon class="cls-3" points="199.13 384.5 475.13 461.5 475.13 480.5 379.13 541.5 62.13 450.5 62.13 415.5 199.13 384.5"/><polyline class="cls-2" points="377.63 541.07 377.63 512 474.63 463"/><line class="cls-2" x1="377.63" y1="512" x2="62.63" y2="419"/><polygon class="cls-2" points="374.63 499 451.63 465 451.63 450 198.63 384 104.45 405.92 104.63 421 149.68 434.01 374.63 499"/><polyline class="cls-2" points="108.47 404.99 373.63 481 445.67 453.28"/><line class="cls-2" x1="374.88" y1="480.52" x2="374.63" y2="499"/><polyline class="cls-2" points="393.68 473.28 394.34 490.3 412.27 482.38 412.27 466.13 431.51 458.73 431.51 473.88"/><polyline class="cls-2" points="174.72 389.57 431.63 459 409.68 467.13 153.07 394.61 130.27 399.91 390.49 474.51"/><polyline class="cls-2" points="217.29 389.57 197.63 395.76 224.47 403.01 239.83 395.86 254.38 399.91 239.09 406.96 363.08 440.47 374.88 433.53 390.92 438.01 377.63 444.41 412.68 453.88 424.11 447.27"/><polyline class="cls-2" points="189.81 404.99 208.54 398.71 238.63 407 224.3 414.74 255.73 423.62 273.63 416.3 304.28 424.58 285.52 432.04 315.03 440.38 331.87 432.04 362.63 440 345.78 449.07 374.75 457.26 393.68 448.74"/><polyline class="cls-2" points="390.05 461.58 374.88 470.04 342.2 460.67 359.48 452.94 329.98 444.6 316.78 453.38 286.16 444.6 302.48 436.83 271.17 427.98 256.87 436.21 225.76 427.29 241.39 419.57 204.75 409.21 189.81 416.98 155.16 407.05 173.92 400.5"/><polyline class="cls-2" points="170.53 411.45 151.98 417.46 150.86 434.36 191.32 446.04 191.69 428.85 224.49 438.25 224.49 455.63 255.94 464.71 256.49 447.42 285.21 455.65 285.21 473.17 318.29 482.72 318.29 465.14 344.51 472.65 344.51 490.3"/><polyline class="cls-2" points="204.53 421.2 191.63 428 225.77 438.61 239.25 431.16 269.96 439.96 256.63 447 286.22 455.94 298.51 448.14 328.43 456.72 316.58 464.65 345.92 473.06 357.53 465.06"/></g><g id="Layer_2-2" data-name="Layer 2"><path class="cls-4" d="M343.06,218.11,294.63,189s21-98-38-10c-41,23,9-50,9-50s12-43-65,35c-24,7-13-90-13-90s-40.44-60.73-65,81c-16.8,96.91,166.53,45.23,158,63"/><path class="cls-4" d="M526.25,280.82l56-7.69s19.27-98.36,38.87,5.76c28.63,37.28,11.4-49.5,11.4-49.5s5.9-44.26,46,57.76c19.31,15.88,47.38-77.62,47.38-77.62s61.07-39.91,27.86,100C731,405.27,556.78,289.31,557.63,309"/><path class="cls-5" d="M133.63,370c-11-33,74.22-140,181-155,105.5-14.79,288,50,302,247-39-6-80-26-80-26-53,42-126.4,36.84-101-24l-192-41C196.61,395.92,153.68,410.87,133.63,370Z"/><circle cx="285.38" cy="314.25" r="14.75"/><circle cx="435.81" cy="362.27" r="14.75"/><path class="cls-6" d="M316.13,323.5s1,25,28,5c7,23,26,19,26,19"/></g></g></svg>