<svg xmlns="http://www.w3.org/2000/svg" viewBox="0 0 800 800"><defs><style>.cls-1,.cls-4{fill:none;}.cls-1,.cls-2,.cls-3,.cls-4{stroke:#000;}.cls-1{stroke-miterlimit:10;stroke-width:5px;}.cls-2{fill:#c7b299;}.cls-2,.cls-3,.cls-4{stroke-linecap:round;stroke-linejoin:round;}.cls-2,.cls-3{stroke-width:11px;}.cls-3{fill:#a67c52;}.cls-4{stroke-width:4px;}</style></defs><g id="Layer_3" data-name="Layer 3"><polygon class="cls-1" points="199 384 475 461 475 480 379 541 62 450 62 415 199 384"/><polyline class="cls-1" points="377.5 540.57 377.5 511.5 474.5 462.5"/><line class="cls-1" x1="377.5" y1="511.5" x2="62.5" y2="418.5"/><polygon class="cls-1" points="374.5 498.5 451.5 464.5 451.5 449.5 198.5 383.5 104.32 405.42 104.5 420.5 149.55 433.51 374.5 498.5"/><polyline class="cls-1" points="108.34 404.49 373.5 480.5 445.54 452.78"/><line class="cls-1" x1="374.75" y1="480.02" x2="374.5" y2="498.5"/><polyline class="cls-1" points="393.55 472.78 394.21 489.8 412.14 481.88 412.14 465.63 431.38 458.23 431.38 473.38"/><polyline class="cls-1" points="174.59 389.07 431.5 458.5 409.55 466.63 152.94 394.11 130.14 399.41 390.36 474.01"/><polyline class="cls-1" points="217.16 389.07 197.5 395.26 224.34 402.51 239.7 395.36 254.25 399.41 238.96 406.46 362.95 439.97 374.75 433.03 390.79 437.51 377.5 443.91 412.55 453.38 423.98 446.77"/><polyline class="cls-1" points="189.68 404.49 208.41 398.21 238.5 406.5 224.17 414.24 255.6 423.12 273.5 415.8 304.15 424.08 285.39 431.54 314.9 439.88 331.74 431.54 362.5 439.5 345.65 448.57 374.62 456.76 393.55 448.24"/><polyline class="cls-1" points="389.92 461.08 374.75 469.54 342.07 460.17 359.35 452.44 329.85 444.1 316.65 452.88 286.03 444.1 302.35 436.33 271.04 427.48 256.74 435.71 225.63 426.79 241.26 419.07 204.62 408.71 189.68 416.48 155.03 406.55 173.79 400"/><polyline class="cls-1" points="170.4 410.95 151.85 416.96 150.73 433.86 191.19 445.54 191.56 428.35 224.36 437.75 224.36 455.13 255.81 464.21 256.36 446.92 285.08 455.15 285.08 472.67 318.16 482.22 318.16 464.64 344.38 472.15 344.38 489.8"/><polyline class="cls-1" points="204.4 420.7 191.5 427.5 225.64 438.11 239.13 430.66 269.83 439.46 256.5 446.5 286.09 455.44 298.38 447.64 328.3 456.22 316.45 464.15 345.79 472.56 357.4 464.56"/></g><g id="Layer_2" data-name="Layer 2"><path class="cls-2" d="M342.93,217.61,294.5,188.5s21-98-38-10c-41,23,9-50,9-50s12-43-65,35c-24,7-13-90-13-90s-40.44-60.73-65,81c-16.8,96.91,166.53,45.23,158,63"/><path class="cls-2" d="M526.12,280.32l56-7.69s19.27-98.36,38.87,5.76c28.63,37.28,11.4-49.5,11.4-49.5s5.9-44.26,46,57.76C697.66,302.53,725.73,209,725.73,209s61.07-39.91,27.86,100c-22.7,95.69-196.94-20.27-196.09-.58"/><path class="cls-3" d="M133.5,369.5c-11-33,74.22-140,181-155,105.5-14.79,288,50,302,247-39-6-80-26-80-26-53,42-126.4,36.84-101-24l-192-41C196.48,395.42,153.55,410.37,133.5,369.5Z"/><circle cx="285.25" cy="313.75" r="14.75"/><circle cx="435.68" cy="361.77" r="14.75"/><path class="cls-4" d="M316,323s1,25,28,5c7,23,26,19,26,19"/></g></svg>