<svg xmlns="http://www.w3.org/2000/svg" viewBox="0 0 800.26 488.65"><defs><style>.cls-1,.cls-5{fill:none;}.cls-1,.cls-2,.cls-3,.cls-4,.cls-5{stroke:#000;}.cls-1,.cls-2{stroke-miterlimit:10;stroke-width:5px;}.cls-2{fill:#fff;}.cls-3{fill:#c7b299;}.cls-3,.cls-4,.cls-5{stroke-linecap:round;stroke-linejoin:round;}.cls-3,.cls-4{stroke-width:11px;}.cls-4{fill:#a67c52;}.cls-5{stroke-width:4px;}</style></defs><g id="Layer_2" data-name="Layer 2"><g id="Layer_5" data-name="Layer 5"><line class="cls-1" x1="799.63" y1="456.43" x2="0.63" y2="248.43"/></g><g id="Layer_3" data-name="Layer 3"><polygon class="cls-2" points="199.13 328.93 475.13 405.93 475.13 424.93 379.13 485.93 62.13 394.93 62.13 359.93 199.13 328.93"/><polyline class="cls-1" points="377.63 485.5 377.63 456.43 474.63 407.43"/><line class="cls-1" x1="377.63" y1="456.43" x2="62.63" y2="363.43"/><polygon class="cls-1" points="374.63 443.43 451.63 409.43 451.63 394.43 198.63 328.43 104.45 350.36 104.63 365.43 149.68 378.45 374.63 443.43"/><polyline class="cls-1" points="108.47 349.42 373.63 425.43 445.67 397.71"/><line class="cls-1" x1="374.88" y1="424.95" x2="374.63" y2="443.43"/><polyline class="cls-1" points="393.68 417.72 394.34 434.73 412.27 426.81 412.27 410.56 431.51 403.16 431.51 418.32"/><polyline class="cls-1" points="174.72 334 431.63 403.43 409.68 411.56 153.07 339.04 130.27 344.35 390.49 418.95"/><polyline class="cls-1" points="217.29 334 197.63 340.19 224.47 347.45 239.83 340.29 254.38 344.35 239.09 351.4 363.08 384.91 374.88 377.96 390.92 382.44 377.63 388.84 412.68 398.31 424.11 391.7"/><polyline class="cls-1" points="189.81 349.42 208.54 343.14 238.63 351.43 224.3 359.17 255.73 368.05 273.63 360.73 304.28 369.01 285.52 376.47 315.03 384.81 331.87 376.47 362.63 384.43 345.78 393.5 374.75 401.69 393.68 393.18"/><polyline class="cls-1" points="390.05 406.01 374.88 414.47 342.2 405.1 359.48 397.38 329.98 389.04 316.78 397.81 286.16 389.04 302.48 381.27 271.17 372.42 256.87 380.64 225.76 371.72 241.39 364 204.75 353.64 189.81 361.41 155.16 351.48 173.92 344.93"/><polyline class="cls-1" points="170.53 355.89 151.98 361.89 150.86 378.79 191.32 390.48 191.69 373.28 224.49 382.68 224.49 400.06 255.94 409.14 256.49 391.85 285.21 400.09 285.21 417.6 318.29 427.16 318.29 409.57 344.51 417.08 344.51 434.73"/><polyline class="cls-1" points="204.53 365.63 191.63 372.43 225.77 383.05 239.25 375.59 269.96 384.39 256.63 391.43 286.22 400.38 298.51 392.58 328.43 401.15 316.58 409.08 345.92 417.49 357.53 409.5"/></g><g id="Layer_2-2" data-name="Layer 2"><path class="cls-3" d="M343.06,162.54l-48.43-29.11s21-98-38-10c-41,23,9-50,9-50s12-43-65,35c-24,7-13-90-13-90s-40.44-60.72-65,81c-16.8,96.91,166.53,45.23,158,63"/><path class="cls-3" d="M526.25,225.25l56-7.69s19.27-98.36,38.87,5.76c28.63,37.29,11.4-49.5,11.4-49.5s5.9-44.25,46,57.76C697.79,247.46,725.86,154,725.86,154s61.07-39.9,27.86,100c-22.7,95.7-196.94-20.27-196.09-.58"/><path class="cls-4" d="M133.63,314.43c-11-33,74.22-140,181-155,105.5-14.79,288,50,302,247-39-6-80-26-80-26-53,42-126.4,36.84-101-24l-192-41C196.61,340.36,153.68,355.3,133.63,314.43Z"/><circle cx="285.38" cy="258.68" r="14.75"/><circle cx="435.81" cy="306.71" r="14.75"/><path class="cls-5" d="M316.13,267.93s1,25,28,5c7,23,26,19,26,19"/></g></g></svg>