<svg width="1715" height="245" viewBox="0 0 1715 245" fill="none" xmlns="http://www.w3.org/2000/svg">
<g clip-path="url(#clip0_1059_1213)">
<path d="M395.487 13.0134C395.271 12.1891 394.998 11.3807 394.67 10.5941C394.447 10.0821 394.199 9.57018 393.935 9.08301C393.671 8.58758 393.373 8.11691 393.068 7.65451C391.547 5.39664 389.515 3.52871 387.138 2.20196C384.761 0.875217 382.105 0.126954 379.384 0.0177616C376.664 -0.0914304 373.956 0.44152 371.481 1.57346C369.005 2.70539 366.83 4.4045 365.133 6.53319C363.436 8.66187 362.264 11.1603 361.712 13.8262C361.16 16.4921 361.244 19.2504 361.956 21.878C362.669 24.5055 363.99 26.9283 365.813 28.9502C367.636 30.9721 369.91 32.5363 372.45 33.5161C369.378 49.2956 351.493 66.7431 333.806 76.7591C331.079 78.2965 328.222 79.5896 325.268 80.6235C328.921 69.7647 330.901 58.4132 331.139 46.9588C334.997 45.6009 338.251 42.9227 340.325 39.3978C342.399 35.8728 343.161 31.728 342.475 27.6959C341.789 23.6637 339.7 20.0039 336.577 17.3632C333.453 14.7225 329.497 13.2709 325.407 13.2651C321.317 13.2592 317.356 14.6995 314.225 17.3313C311.094 19.963 308.995 23.6169 308.297 27.647C307.6 31.6772 308.35 35.8242 310.414 39.3551C312.478 42.8859 315.724 45.5733 319.579 46.9423C319.334 59.3888 316.766 71.68 312.007 83.1832C304.55 101.2 292.016 116.245 276.385 124.676L275.444 125.188C267.847 129.291 263.942 131.397 257.055 131.992C257.352 129.25 257.939 126.055 258.946 121.026C259.235 119.581 259.821 117.054 260.515 114.131C263.496 101.448 265.461 91.9771 266.501 84.8346C270.319 83.3893 273.504 80.6434 275.496 77.0803C277.488 73.5173 278.158 69.3657 277.39 65.3567C276.621 61.3478 274.463 57.7385 271.294 55.1647C268.126 52.5909 264.151 51.2175 260.07 51.2865C255.989 51.3555 252.062 52.8624 248.983 55.5418C245.903 58.2212 243.868 61.9013 243.236 65.934C242.603 69.9667 243.414 74.0932 245.525 77.5869C247.636 81.0806 250.912 83.7174 254.776 85.0328C253.232 94.5534 250.482 106.262 249.26 111.481C248.517 114.635 247.931 117.129 247.609 118.755C246.6 123.316 245.859 127.931 245.388 132.578C237.04 133.585 230.549 136.525 225.653 141.471C216.537 150.686 215.274 164.674 215.224 179.049C215.208 181.667 215.232 184.293 215.265 186.91C215.29 189.082 215.307 191.245 215.307 193.384V226.776C215.307 227.016 215.29 227.256 215.257 227.494C215.234 227.732 215.19 227.967 215.125 228.196C214.82 229.48 214.042 230.601 212.945 231.334C212.937 231.342 212.92 231.35 212.912 231.359C212.904 231.359 212.904 231.367 212.896 231.367C212.805 231.425 212.722 231.483 212.631 231.54C212.572 231.577 212.512 231.61 212.45 231.639C211.926 231.951 211.376 232.217 210.806 232.432C210.482 232.554 210.151 232.659 209.816 232.746C209.444 232.853 209.064 232.936 208.668 233.01C208.271 233.093 207.859 233.151 207.429 233.2C207.385 233.201 207.34 233.207 207.297 233.217C205.871 233.364 204.437 233.435 203.003 233.431V233.423H202.979V216.372C202.978 216.168 203.019 215.966 203.102 215.779C203.184 215.592 203.304 215.425 203.455 215.288C203.606 215.151 203.785 215.047 203.979 214.984C204.172 214.92 204.378 214.898 204.58 214.919C205.703 215.026 206.959 215.166 208.412 215.323C208.561 215.341 208.712 215.329 208.857 215.287C209.001 215.246 209.136 215.177 209.254 215.083C209.371 214.989 209.469 214.873 209.541 214.742C209.614 214.61 209.659 214.465 209.675 214.316L210.096 210.509L210.526 206.694C210.533 206.656 210.535 206.618 210.534 206.579V206.571C210.533 206.499 210.527 206.427 210.517 206.356C210.486 206.222 210.433 206.093 210.361 205.976C210.325 205.917 210.283 205.862 210.237 205.811C210.193 205.758 210.143 205.711 210.088 205.671C209.917 205.542 209.714 205.462 209.502 205.439C204.027 204.878 200.947 204.581 198.016 204.572C195.085 204.581 192.005 204.878 186.53 205.439C186.247 205.464 185.983 205.597 185.795 205.811C185.749 205.862 185.707 205.917 185.671 205.976C185.599 206.093 185.546 206.222 185.515 206.356C185.505 206.43 185.499 206.504 185.498 206.579C185.497 206.618 185.5 206.656 185.506 206.694L185.936 210.509L186.357 214.316C186.373 214.465 186.418 214.61 186.491 214.742C186.563 214.873 186.661 214.989 186.778 215.083C186.896 215.177 187.031 215.246 187.175 215.287C187.32 215.329 187.471 215.341 187.62 215.323C189.073 215.166 190.329 215.026 191.452 214.919C191.654 214.898 191.86 214.92 192.053 214.984C192.247 215.047 192.426 215.151 192.577 215.288C192.728 215.425 192.848 215.592 192.93 215.779C193.013 215.966 193.055 216.168 193.053 216.372V233.423H193.029V233.431C191.595 233.435 190.161 233.364 188.735 233.217C188.69 233.215 188.646 233.21 188.603 233.2C188.173 233.151 187.761 233.093 187.364 233.01C186.968 232.936 186.588 232.853 186.216 232.746C185.881 232.659 185.55 232.554 185.226 232.432C184.654 232.22 184.104 231.955 183.582 231.639C183.52 231.61 183.46 231.577 183.401 231.54C183.31 231.483 183.227 231.425 183.137 231.367C183.12 231.359 183.104 231.342 183.087 231.334C181.99 230.601 181.212 229.48 180.907 228.196C180.842 227.967 180.798 227.732 180.775 227.494C180.742 227.254 180.725 227.011 180.725 226.768V193.384C180.725 191.245 180.742 189.082 180.767 186.91C180.8 184.293 180.825 181.667 180.808 179.049C180.758 164.674 179.495 150.686 170.379 141.471C165.483 136.525 158.992 133.585 150.644 132.578C150.173 127.931 149.432 123.316 148.423 118.755C148.101 117.129 147.515 114.643 146.772 111.489C145.55 106.27 142.8 94.5534 141.256 85.0328C145.122 83.7173 148.4 81.0798 150.512 77.5848C152.625 74.0898 153.436 69.9615 152.803 65.927C152.171 61.8926 150.135 58.2108 147.054 55.53C143.973 52.8493 140.045 51.3417 135.962 51.2727C131.879 51.2037 127.903 52.5777 124.733 55.1528C121.563 57.7279 119.404 61.3388 118.636 65.3496C117.867 69.3603 118.538 73.5137 120.531 77.0781C122.524 80.6425 125.711 83.3892 129.531 84.8346C130.571 91.9771 132.536 101.448 135.517 114.131C136.211 117.062 136.797 119.581 137.086 121.026C138.093 126.055 138.68 129.25 138.977 131.992C132.09 131.397 128.185 129.291 120.588 125.188L119.647 124.676C104.016 116.245 91.4815 101.2 84.0253 83.1832C79.266 71.68 76.698 59.3888 76.4534 46.9423C80.3084 45.5733 83.5553 42.8855 85.6202 39.3541C87.6851 35.8227 88.4351 31.6749 87.7377 27.644C87.0402 23.6131 84.9401 19.9585 81.8087 17.3261C78.6773 14.6938 74.7161 13.2533 70.6253 13.2591C66.5344 13.265 62.5774 14.7168 59.4535 17.3581C56.3296 19.9993 54.24 23.6599 53.554 27.6928C52.8681 31.7257 53.6299 35.8713 55.7049 39.3968C57.7799 42.9224 61.0345 45.6008 64.8933 46.9588C65.1311 58.4132 67.1107 69.7647 70.7642 80.6235C67.8098 79.5897 64.9527 78.2965 62.2263 76.7591C44.5393 66.7431 26.6542 49.2956 23.5825 33.5161C26.1232 32.5367 28.3975 30.9727 30.2212 28.9507C32.045 26.9287 33.3668 24.5056 34.0797 21.8776C34.7926 19.2497 34.8765 16.4907 34.3247 13.8243C33.7728 11.1579 32.6007 8.65894 30.9033 6.52984C29.2058 4.40074 27.0308 2.70136 24.5543 1.56935C22.0779 0.437334 19.3696 -0.0954896 16.6489 0.0140322C13.9281 0.123554 11.2714 0.872344 8.89398 2.19975C6.51651 3.52716 4.48511 5.39586 2.9643 7.65451C2.65879 8.11691 2.36152 8.58758 2.09729 9.08301C1.83306 9.57018 1.58535 10.0821 1.3624 10.5941C1.03459 11.3808 0.761451 12.1891 0.544935 13.0134C-0.549713 17.2781 0.0175479 21.7994 2.13179 25.6614C4.24603 29.5235 7.74919 32.4376 11.9316 33.8133C14.9703 54.5637 36.4555 75.4462 56.5288 86.8164C58.4306 87.8925 60.3875 88.8682 62.3914 89.7394C64.0016 90.4495 65.6447 91.0853 67.3127 91.6633C68.4439 92.0514 69.5834 92.4147 70.7395 92.7368C72.556 93.257 74.4057 93.7029 76.2635 94.0662H76.2718C76.4865 94.5203 76.7177 94.9662 76.9406 95.4204C77.1636 95.8663 77.3948 96.3039 77.626 96.7498C86.4612 113.553 99.0947 126.723 114.164 134.857L115.097 135.36C123.561 139.935 129.085 142.916 139.068 143.593C139.043 144.088 139.018 144.617 138.994 145.162C138.919 146.854 138.837 148.745 138.754 150.909C138.465 158.15 138.168 168.488 138.168 184.805V190.469C138.168 201.889 149.455 209.535 158.53 215.687C161.296 217.561 163.914 219.336 165.945 221.004C166.473 222.687 166.9 224.399 167.225 226.132C167.578 227.982 168.03 229.813 168.579 231.615C168.98 232.975 169.645 234.243 170.536 235.347C171.271 236.214 172.006 236.998 172.741 237.717C172.98 237.956 173.228 238.187 173.467 238.41C174.807 239.659 176.28 240.755 177.86 241.68C178.265 241.92 178.669 242.134 179.082 242.341C179.646 242.627 180.225 242.884 180.816 243.109C181.014 243.191 181.213 243.266 181.411 243.332C182.792 243.827 184.215 244.194 185.663 244.43C185.845 244.463 186.027 244.496 186.208 244.521C186.472 244.562 186.728 244.603 186.993 244.628C187.488 244.694 187.984 244.744 188.487 244.793C189.148 244.851 189.817 244.892 190.485 244.917C190.667 244.925 190.849 244.934 191.022 244.942C192.36 244.991 193.731 245 195.143 245H196.488L197.578 244.991H198.454L199.544 245C201.435 245 203.251 245.008 205.01 244.942C205.183 244.934 205.365 244.925 205.547 244.917C206.224 244.892 206.893 244.843 207.545 244.793C208.049 244.744 208.544 244.694 209.039 244.628C209.304 244.595 209.568 244.562 209.824 244.521C210.005 244.496 210.187 244.463 210.369 244.43C211.817 244.194 213.24 243.827 214.621 243.332C214.819 243.266 215.018 243.191 215.216 243.109C215.806 242.882 216.385 242.626 216.95 242.341C217.363 242.134 217.767 241.92 218.172 241.68C219.752 240.755 221.225 239.659 222.565 238.41C222.804 238.187 223.052 237.956 223.291 237.717C224.034 236.998 224.761 236.214 225.496 235.347C226.387 234.243 227.052 232.975 227.453 231.615C228.002 229.813 228.454 227.982 228.807 226.132C229.132 224.399 229.559 222.687 230.087 221.004C232.118 219.336 234.736 217.561 237.502 215.687C246.577 209.535 257.864 201.889 257.864 190.469V184.805C257.864 168.488 257.567 158.15 257.278 150.909C257.195 148.745 257.113 146.854 257.039 145.162C257.014 144.617 256.989 144.088 256.964 143.593C266.947 142.916 272.471 139.935 280.943 135.36L281.868 134.857C296.937 126.723 309.571 113.553 318.406 96.7498C318.637 96.3039 318.869 95.8663 319.091 95.4204C319.314 94.9662 319.546 94.5203 319.76 94.0662H319.769C321.626 93.7029 323.468 93.2652 325.293 92.7368C326.449 92.4147 327.588 92.0514 328.719 91.6633C330.387 91.0853 332.03 90.4495 333.641 89.7394C335.643 88.8648 337.6 87.8892 339.503 86.8164C359.577 75.4462 381.062 54.5637 384.1 33.8133C388.283 32.4377 391.786 29.5236 393.9 25.6615C396.015 21.7994 396.582 17.2781 395.487 13.0134V13.0134ZM17.3401 23.1203C16.1969 23.1203 15.0794 22.7813 14.1289 22.1461C13.1784 21.511 12.4375 20.6083 12 19.5521C11.5626 18.496 11.4481 17.3338 11.6711 16.2126C11.8941 15.0914 12.4446 14.0615 13.253 13.2531C14.0613 12.4448 15.0913 11.8943 16.2125 11.6712C17.3337 11.4482 18.4959 11.5627 19.552 12.0002C20.6082 12.4376 21.5109 13.1785 22.146 14.129C22.7811 15.0795 23.1201 16.197 23.1201 17.3402C23.1185 18.8727 22.509 20.3419 21.4253 21.4255C20.3417 22.5091 18.8725 23.1186 17.3401 23.1203V23.1203ZM70.6486 36.3813C69.5054 36.3813 68.3879 36.0423 67.4374 35.4072C66.4869 34.7721 65.746 33.8694 65.3086 32.8132C64.8711 31.7571 64.7566 30.5949 64.9796 29.4737C65.2027 28.3524 65.7532 27.3225 66.5615 26.5142C67.3699 25.7058 68.3998 25.1553 69.521 24.9323C70.6422 24.7093 71.8044 24.8237 72.8606 25.2612C73.9167 25.6987 74.8194 26.4395 75.4545 27.3901C76.0897 28.3406 76.4287 29.4581 76.4287 30.6013C76.427 32.1337 75.8175 33.6029 74.7339 34.6865C73.6503 35.7701 72.1811 36.3796 70.6486 36.3813V36.3813ZM135.666 74.4058C134.133 74.4041 132.664 73.7946 131.581 72.711C130.497 71.6274 129.887 70.1582 129.886 68.6257C129.892 67.0947 130.503 65.6282 131.586 64.5455C132.668 63.4629 134.135 62.8519 135.666 62.8457C137.199 62.8457 138.669 63.4547 139.753 64.5386C140.837 65.6226 141.446 67.0928 141.446 68.6257C141.446 70.1587 140.837 71.6289 139.753 72.7128C138.669 73.7968 137.199 74.4058 135.666 74.4058V74.4058ZM154.674 145.211C157.494 146.036 160.067 147.545 162.163 149.604C164.979 152.445 166.696 156.416 167.729 161.04C167.919 161.883 168.084 162.741 168.232 163.625C168.455 164.946 168.629 166.308 168.769 167.712H168.761C164.619 167.6 160.685 165.876 157.795 162.907C157.266 162.368 156.778 161.791 156.334 161.181C156.036 160.776 155.756 160.355 155.5 159.926C155.368 159.703 155.244 159.488 155.128 159.265C154.889 158.819 154.674 158.357 154.476 157.886C153.642 155.872 153.23 153.708 153.264 151.528C153.298 149.348 153.778 147.199 154.674 145.211V145.211ZM169.215 186.786C169.19 188.999 169.165 191.204 169.165 193.384V208.965C167.836 208.024 166.449 207.083 165.02 206.116C158.208 201.501 149.728 195.754 149.728 190.469V184.805C149.728 180.214 149.753 176.093 149.794 172.402C150.108 172.7 150.438 172.997 150.768 173.278C151.429 173.839 152.114 174.376 152.824 174.888C153.537 175.398 154.276 175.872 155.037 176.308C155.789 176.746 156.573 177.15 157.374 177.522C161.083 179.236 165.121 180.121 169.207 180.115H169.264C169.264 182.327 169.24 184.565 169.215 186.786ZM227.8 163.625C227.948 162.741 228.114 161.883 228.303 161.04C229.336 156.416 231.053 152.453 233.869 149.604C235.965 147.545 238.538 146.036 241.358 145.211C242.254 147.199 242.734 149.348 242.768 151.528C242.802 153.708 242.39 155.872 241.556 157.886C241.358 158.357 241.143 158.819 240.904 159.265C240.788 159.488 240.664 159.703 240.532 159.926C240.276 160.355 239.996 160.776 239.698 161.181C239.254 161.791 238.766 162.368 238.237 162.907C235.349 165.879 231.414 167.604 227.271 167.712H227.263C227.403 166.308 227.577 164.946 227.8 163.625ZM246.304 190.469C246.304 195.754 237.824 201.501 231.012 206.116C229.583 207.083 228.196 208.024 226.867 208.965V193.384C226.867 191.204 226.842 188.999 226.817 186.786C226.792 184.565 226.768 182.327 226.768 180.115H226.825C230.911 180.117 234.948 179.233 238.658 177.522C239.459 177.15 240.243 176.746 240.995 176.308C241.754 175.862 242.498 175.391 243.208 174.888C243.563 174.632 243.918 174.368 244.265 174.103C244.95 173.558 245.611 172.997 246.238 172.402C246.279 176.102 246.304 180.214 246.304 184.805V190.469ZM255.602 71.8956C254.747 70.6552 254.411 69.13 254.665 67.6453C254.919 66.1606 255.743 64.834 256.962 63.9484C258.18 63.0628 259.697 62.6884 261.187 62.9051C262.678 63.1218 264.025 63.9123 264.941 65.1082C265.724 66.113 266.149 67.3514 266.146 68.6257C266.146 69.8596 265.752 71.0611 265.02 72.0545C264.288 73.0479 263.257 73.7809 262.079 74.1464C260.9 74.5118 259.636 74.4905 258.47 74.0855C257.305 73.6805 256.3 72.9131 255.602 71.8956ZM319.603 30.6013C319.603 29.4581 319.942 28.3406 320.577 27.3901C321.213 26.4395 322.115 25.6987 323.172 25.2612C324.228 24.8237 325.39 24.7093 326.511 24.9323C327.632 25.1553 328.662 25.7058 329.471 26.5142C330.279 27.3225 330.829 28.3524 331.052 29.4737C331.275 30.5949 331.161 31.7571 330.724 32.8132C330.286 33.8694 329.545 34.7721 328.595 35.4072C327.644 36.0423 326.527 36.3813 325.383 36.3813C323.851 36.3796 322.382 35.7701 321.298 34.6865C320.215 33.6029 319.605 32.1337 319.603 30.6013ZM378.692 23.1203C377.549 23.1203 376.431 22.7813 375.481 22.1461C374.53 21.511 373.789 20.6083 373.352 19.5521C372.914 18.496 372.8 17.3338 373.023 16.2126C373.246 15.0914 373.796 14.0615 374.605 13.2531C375.413 12.4448 376.443 11.8943 377.564 11.6712C378.686 11.4482 379.848 11.5627 380.904 12.0002C381.96 12.4376 382.863 13.1785 383.498 14.129C384.133 15.0795 384.472 16.197 384.472 17.3402C384.47 18.8727 383.861 20.3419 382.777 21.4255C381.694 22.5091 380.224 23.1186 378.692 23.1203V23.1203Z" fill="#4582C3"/>
<path d="M245.874 114.92C245.585 116.183 245.353 117.249 245.18 118.099C245.007 118.974 244.841 119.8 244.693 120.584C244.627 120.906 244.561 121.229 244.503 121.534C244.164 123.326 243.892 124.878 243.661 126.274C215.215 121.055 185.794 121.129 154.02 126.472C153.789 125.027 153.5 123.417 153.145 121.534C153.096 121.286 153.046 121.039 152.997 120.783C152.84 119.94 152.658 119.057 152.468 118.107C152.311 117.298 152.08 116.282 151.824 115.118C185.101 109.487 215.966 109.429 245.874 114.92Z" fill="#4481C2"/>
<path d="M414.363 170.728C414.363 206.611 440.223 225.455 471.095 225.455C501.766 225.455 527.827 206.611 527.827 170.728V82.9232H502.167V170.728C502.167 192.579 487.734 203.404 471.095 203.404C454.256 203.404 440.023 192.579 440.023 170.728V82.9232H414.363V170.728ZM549.031 172.532C549.031 202.001 574.691 225.455 603.959 225.455C633.628 225.455 659.087 201.8 659.087 172.532C659.087 143.464 633.628 119.609 603.959 119.609C574.691 119.609 549.031 143.264 549.031 172.532ZM573.889 172.532C573.889 154.69 586.919 140.658 603.959 140.658C621.199 140.658 634.23 154.891 634.23 172.532C634.23 190.373 621.199 204.406 603.959 204.406C586.919 204.406 573.889 190.373 573.889 172.532ZM669.792 121.814V140.658H684.827V223.25H709.886V140.658H734.543V121.814H709.886V111.189C709.886 101.567 714.897 96.7554 721.112 96.7554C727.126 96.7554 731.135 99.9629 731.135 106.378C731.135 107.38 730.935 108.783 730.534 109.786H750.38C751.182 107.781 751.382 104.774 751.382 104.173C751.382 89.5386 741.96 76.3078 720.109 76.3078C703.07 76.3078 684.827 83.9255 684.827 114.998V121.814H669.792ZM799.179 103.571V223.25H824.839V103.571H868.14V82.9232H756.279V103.571H799.179ZM915.782 223.25V166.518H975.12V223.25H1000.78V82.9232H975.12V146.07H915.782V82.9232H890.122V223.25H915.782ZM1074.28 225.455C1089.11 225.455 1101.74 219.04 1108.96 208.015V223.25H1133.62V121.814H1108.96V136.849C1100.74 125.222 1088.11 119.609 1074.48 119.609C1043.41 119.609 1024.56 143.464 1024.56 172.131C1024.56 201.8 1044.21 225.455 1074.28 225.455ZM1049.42 172.331C1049.42 154.891 1060.04 140.257 1078.69 140.257C1098.13 140.257 1109.56 155.091 1109.56 173.334C1109.56 191.376 1098.13 204.807 1079.29 204.807C1060.85 204.807 1049.42 190.373 1049.42 172.331ZM1154.74 173.133C1154.74 202.602 1176.59 225.455 1211.87 225.455C1221.69 225.455 1235.33 223.25 1250.96 211.623L1239.54 194.182C1229.11 202.602 1216.88 203.404 1213.07 203.404C1193.43 203.404 1179.6 190.574 1179.6 172.532C1179.6 154.289 1193.43 141.66 1213.07 141.66C1216.88 141.66 1229.11 142.261 1239.54 150.881L1250.96 133.24C1235.33 121.814 1221.69 119.609 1211.87 119.609C1175.99 119.609 1154.74 143.063 1154.74 173.133ZM1269.42 78.3124V223.25H1294.08V174.136L1314.53 207.012C1321.54 217.036 1330.16 225.455 1345.6 225.455C1350.61 225.455 1361.44 224.854 1369.86 216.635L1361.04 199.595C1357.03 202.602 1351.21 203.203 1349.01 203.203C1341.59 203.203 1338.38 199.595 1333.17 191.977L1317.94 168.322L1353.22 124.821V121.814H1325.95L1294.08 163.711V78.3124H1269.42ZM1373.57 199.194C1379.38 218.639 1398.02 225.455 1414.46 225.455C1435.51 225.455 1454.15 214.63 1454.15 194.583C1454.15 185.763 1449.94 172.732 1428.29 165.516L1413.26 160.103C1407.64 158.098 1402.63 155.292 1402.63 149.679C1402.63 142.662 1409.45 139.054 1415.86 139.054C1421.28 139.054 1428.69 141.259 1431.3 149.478L1451.15 142.261C1444.53 124.019 1428.49 119.609 1415.66 119.609C1394.61 119.609 1378.58 131.436 1378.58 150.28C1378.58 159.502 1383.79 170.928 1404.04 178.546L1418.87 184.159C1425.09 186.765 1429.9 189.772 1429.9 194.984C1429.9 203.003 1421.88 205.609 1414.66 205.609C1405.44 205.609 1395.62 200.998 1393.01 190.975L1373.57 199.194ZM1555.55 82.9232H1529.89V223.25H1555.55V82.9232ZM1573.72 220.844V223.25H1603.39L1642.88 169.725L1682.37 223.25H1712.04V220.844L1657.51 149.077L1706.63 86.1306V82.9232H1677.56L1642.88 129.431L1608.2 82.9232H1579.13V86.1306L1628.25 149.077L1573.72 220.844Z" fill="#4582C3"/>
</g>
<defs>
<clipPath id="clip0_1059_1213">
<rect width="1715" height="245" fill="white"/>
</clipPath>
</defs>
</svg>
